0
SECTION
2
HEADER
9
$INSUNITS
70
4
9
$ACADVER
1
AC1014
9
$HANDSEED
5
FFFF
0
ENDSEC
0
SECTION
2
TABLES
0
TABLE
2
VPORT
5
8
100
AcDbSymbolTable
0
ENDTAB
0
TABLE
2
LTYPE
5
5
100
AcDbSymbolTable
0
LTYPE
5
14
100
AcDbSymbolTableRecord
100
AcDbLinetypeTableRecord
2
BYBLOCK
70
0
0
LTYPE
5
15
100
AcDbSymbolTableRecord
100
AcDbLinetypeTableRecord
2
BYLAYER
70
0
0
ENDTAB
0
TABLE
2
LAYER
5
2
100
AcDbSymbolTable
70
2
0
LAYER
5
50
100
AcDbSymbolTableRecord
100
AcDbLayerTableRecord
2
0
70
0
6
CONTINUOUS
0
ENDTAB
0
TABLE
2
STYLE
5
3
100
AcDbSymbolTable
70
1
0
STYLE
5
11
100
AcDbSymbolTableRecord
100
AcDbTextStyleTableRecord
2
STANDARD
70
0
0
ENDTAB
0
TABLE
2
VIEW
5
6
100
AcDbSymbolTable
70
0
0
ENDTAB
0
TABLE
2
UCS
5
7
100
AcDbSymbolTable
70
0
0
ENDTAB
0
TABLE
2
APPID
5
9
100
AcDbSymbolTable
70
2
0
APPID
5
12
100
AcDbSymbolTableRecord
100
AcDbRegAppTableRecord
2
ACAD
70
0
0
ENDTAB
0
TABLE
2
DIMSTYLE
5
A
100
AcDbSymbolTable
70
1
0
ENDTAB
0
TABLE
2
BLOCK_RECORD
5
1
100
AcDbSymbolTable
70
1
0
BLOCK_RECORD
5
1F
100
AcDbSymbolTableRecord
100
AcDbBlockTableRecord
2
*MODEL_SPACE
0
BLOCK_RECORD
5
1B
100
AcDbSymbolTableRecord
100
AcDbBlockTableRecord
2
*PAPER_SPACE
0
ENDTAB
0
ENDSEC
0
SECTION
2
BLOCKS
0
BLOCK
5
20
100
AcDbEntity
100
AcDbBlockBegin
2
*MODEL_SPACE
0
ENDBLK
5
21
100
AcDbEntity
100
AcDbBlockEnd
0
BLOCK
5
1C
100
AcDbEntity
100
AcDbBlockBegin
2
*PAPER_SPACE
0
ENDBLK
5
1D
100
AcDbEntity
100
AcDbBlockEnd
0
ENDSEC
0
SECTION
2
ENTITIES
0
LWPOLYLINE
5
100
100
AcDbEntity
8
0
100
AcDbPolyline
90
8
70
1
43
0.0
10
-97.872047003838958
20
0
10
-4.9999999999999813
20
0
42
0.41421356237309381
10
0
20
5.0000000000000053
10
1.27675647831893e-14
20
167.42771378633364
42
0.41421356237309465
10
-4.9999999999999822
20
172.42771378633364
10
-97.872047003838901
20
172.42771378633367
42
0.41421356237309709
10
-102.8720470038389
20
167.42771378633364
10
-102.87204700383897
20
5.0000000000000071
42
0.41421356237309875
0
LWPOLYLINE
5
101
100
AcDbEntity
8
0
100
AcDbPolyline
90
4
70
1
43
0.0
10
-96.472047003838952
20
33.71385689316682
10
-99.872047003838958
20
33.71385689316682
10
-99.872047003838958
20
58.71385689316682
10
-96.472047003838952
20
58.71385689316682
0
LWPOLYLINE
5
102
100
AcDbEntity
8
0
100
AcDbPolyline
90
4
70
1
43
0.0
10
-99.872047003838958
20
138.71386053650073
10
-99.872047003838958
20
113.71386053650073
10
-96.472047003838952
20
113.71386053650073
10
-96.472047003838952
20
138.71386053650073
0
CIRCLE
5
103
100
AcDbEntity
8
0
100
AcDbCircle
10
-51.436023501919507
20
56.933554104645303
30
0
40
6.9999999999999973
210
0
220
0
230
1
0
CIRCLE
5
104
100
AcDbEntity
8
0
100
AcDbCircle
10
-51.436023501919472
20
16.933554104645403
30
0
40
6.9999999999999947
210
0
220
0
230
1
0
CIRCLE
5
105
100
AcDbEntity
8
0
100
AcDbCircle
10
-31.436023501919543
20
36.933554104645403
30
0
40
7.0000000000000036
210
0
220
0
230
1
0
CIRCLE
5
106
100
AcDbEntity
8
0
100
AcDbCircle
10
-71.436023501919436
20
36.933554104645381
30
0
40
6.9999999999999982
210
0
220
0
230
1
0
CIRCLE
5
107
100
AcDbEntity
8
0
100
AcDbCircle
10
-84.936023501919408
20
160.66268093342336
30
0
40
1.5000000000000091
210
0
220
0
230
1
0
CIRCLE
5
108
100
AcDbEntity
8
0
100
AcDbCircle
10
-84.936023501919408
20
73.362680933423476
30
0
40
1.5000000000000091
210
0
220
0
230
1
0
CIRCLE
5
109
100
AcDbEntity
8
0
100
AcDbCircle
10
-17.936023501919539
20
160.66268093342336
30
0
40
1.5000000000000091
210
0
220
0
230
1
0
CIRCLE
5
110
100
AcDbEntity
8
0
100
AcDbCircle
10
-17.936023501919539
20
73.362680933423476
30
0
40
1.5000000000000091
210
0
220
0
230
1
0
LWPOLYLINE
5
111
100
AcDbEntity
8
0
100
AcDbPolyline
90
4
70
1
43
0.0
10
-77.936023501919465
20
73.51268093342334
10
-24.936023501919561
20
73.51268093342334
10
-24.936023501919465
20
160.51268093342338
10
-77.936023501919465
20
160.51268093342338
0
LWPOLYLINE
5
112
100
AcDbEntity
8
0
100
AcDbPolyline
90
4
70
1
43
0.0
10
-6.4000000000000075
20
138.71386053650073
10
-6.4000000000000075
20
113.71386053650073
10
-3.0000000000000093
20
113.71386053650073
10
-3.0000000000000093
20
138.71386053650073
0
LWPOLYLINE
5
113
100
AcDbEntity
8
0
100
AcDbPolyline
90
4
70
1
43
0.0
10
-6.4000000000000075
20
33.71385689316682
10
-6.4000000000000075
20
58.71385689316682
10
-3.0000000000000093
20
58.71385689316682
10
-3.0000000000000093
20
33.71385689316682
0
CIRCLE
5
114
100
AcDbEntity
8
0
100
AcDbCircle
10
-4.6999999999999904
20
86.21385689316682
30
0
40
1.6999999999999993
210
0
220
0
230
1
0
LWPOLYLINE
5
115
100
AcDbEntity
8
0
100
AcDbPolyline
90
4
70
1
43
0.0
10
-64.654035252879225
20
6.6000000000000005
10
-64.654035252879225
20
3.200000000000002
10
-89.654035252879225
20
3.200000000000002
10
-89.654035252879225
20
6.6000000000000005
0
CIRCLE
5
116
100
AcDbEntity
8
0
100
AcDbCircle
10
-51.436023501919479
20
4.6999999999999984
30
0
40
1.6999999999999995
210
0
220
0
230
1
0
LWPOLYLINE
5
117
100
AcDbEntity
8
0
100
AcDbPolyline
90
4
70
1
43
0.0
10
-38.218011750959739
20
3.200000000000002
10
-13.218011750959739
20
3.200000000000002
10
-13.218011750959739
20
6.6000000000000005
10
-38.218011750959739
20
6.6000000000000005
0
LWPOLYLINE
5
118
100
AcDbEntity
8
0
100
AcDbPolyline
90
4
70
1
43
0.0
10
-89.654035252879225
20
169.22771378633365
10
-89.654035252879225
20
165.82771378633365
10
-64.654035252879225
20
165.82771378633365
10
-64.654035252879225
20
169.22771378633365
0
CIRCLE
5
119
100
AcDbEntity
8
0
100
AcDbCircle
10
-51.436023501919479
20
167.72771378633365
30
0
40
1.6999999999999995
210
0
220
0
230
1
0
LWPOLYLINE
5
120
100
AcDbEntity
8
0
100
AcDbPolyline
90
4
70
1
43
0.0
10
-38.218011750959739
20
169.22771378633365
10
-13.218011750959739
20
169.22771378633365
10
-13.218011750959739
20
165.82771378633365
10
-38.218011750959739
20
165.82771378633365
0
LINE
5
121
100
AcDbEntity
8
0
100
AcDbLine
10
30
20
0
30
0
11
90
21
0
31
0
0
LINE
5
122
100
AcDbEntity
8
0
100
AcDbLine
10
90
20
159.22800000000001
30
0
11
30
21
159.22800000000001
31
0
0
LINE
5
123
100
AcDbEntity
8
0
100
AcDbLine
10
30
20
132.114
30
0
11
26.799999999999997
21
132.114
31
0
0
LINE
5
124
100
AcDbEntity
8
0
100
AcDbLine
10
26.799999999999997
20
132.114
30
0
11
26.799999999999997
21
107.114
31
0
0
LINE
5
125
100
AcDbEntity
8
0
100
AcDbLine
10
26.799999999999997
20
107.114
30
0
11
30
21
107.114
31
0
0
LINE
5
126
100
AcDbEntity
8
0
100
AcDbLine
10
30
20
159.22800000000001
30
0
11
30
21
132.114
31
0
0
LINE
5
127
100
AcDbEntity
8
0
100
AcDbLine
10
90
20
132.114
30
0
11
93.200000000000003
21
132.114
31
0
0
LINE
5
128
100
AcDbEntity
8
0
100
AcDbLine
10
93.200000000000003
20
132.114
30
0
11
93.200000000000003
21
107.114
31
0
0
LINE
5
129
100
AcDbEntity
8
0
100
AcDbLine
10
93.200000000000003
20
107.114
30
0
11
90
21
107.114
31
0
0
LINE
5
130
100
AcDbEntity
8
0
100
AcDbLine
10
90
20
132.114
30
0
11
90
21
159.22800000000001
31
0
0
LINE
5
131
100
AcDbEntity
8
0
100
AcDbLine
10
90
20
27.114000000000011
30
0
11
93.200000000000003
21
27.114000000000011
31
0
0
LINE
5
132
100
AcDbEntity
8
0
100
AcDbLine
10
93.200000000000003
20
27.114000000000011
30
0
11
93.200000000000003
21
52.114000000000011
31
0
0
LINE
5
133
100
AcDbEntity
8
0
100
AcDbLine
10
93.200000000000003
20
52.114000000000011
30
0
11
90
21
52.114000000000011
31
0
0
LINE
5
134
100
AcDbEntity
8
0
100
AcDbLine
10
30
20
27.114000000000011
30
0
11
26.799999999999997
21
27.114000000000011
31
0
0
LINE
5
135
100
AcDbEntity
8
0
100
AcDbLine
10
26.799999999999997
20
27.114000000000011
30
0
11
26.799999999999997
21
52.114000000000011
31
0
0
LINE
5
136
100
AcDbEntity
8
0
100
AcDbLine
10
26.799999999999997
20
52.114000000000011
30
0
11
30
21
52.114000000000011
31
0
0
LINE
5
137
100
AcDbEntity
8
0
100
AcDbLine
10
30
20
27.114000000000011
30
0
11
30
21
0
31
0
0
LINE
5
138
100
AcDbEntity
8
0
100
AcDbLine
10
90
20
0
30
0
11
90
21
27.114000000000011
31
0
0
LINE
5
139
100
AcDbEntity
8
0
100
AcDbLine
10
30
20
78.114000000000004
30
0
11
32.799999999999997
21
78.114000000000004
31
0
0
LINE
5
140
100
AcDbEntity
8
0
100
AcDbLine
10
32.799999999999997
20
78.114000000000004
30
0
11
32.799999999999997
21
76.484000000000009
31
0
0
LINE
5
141
100
AcDbEntity
8
0
100
AcDbLine
10
32.799999999999997
20
76.484000000000009
30
0
11
35.549999999999997
21
76.484000000000009
31
0
0
LINE
5
142
100
AcDbEntity
8
0
100
AcDbLine
10
35.549999999999997
20
76.484000000000009
30
0
11
35.549999999999997
21
78.114000000000004
31
0
0
LINE
5
143
100
AcDbEntity
8
0
100
AcDbLine
10
35.549999999999997
20
78.114000000000004
30
0
11
37
21
78.114000000000004
31
0
0
LINE
5
144
100
AcDbEntity
8
0
100
AcDbLine
10
37
20
78.114000000000004
30
0
11
37
21
79.614000000000004
31
0
0
LINE
5
145
100
AcDbEntity
8
0
100
AcDbLine
10
30
20
78.114000000000004
30
0
11
30
21
52.114000000000011
31
0
0
LINE
5
146
100
AcDbEntity
8
0
100
AcDbLine
10
35.549999999999997
20
82.744000000000014
30
0
11
35.549999999999997
21
81.114000000000019
31
0
0
LINE
5
147
100
AcDbEntity
8
0
100
AcDbLine
10
32.799999999999997
20
82.744000000000014
30
0
11
35.549999999999997
21
82.744000000000014
31
0
0
LINE
5
148
100
AcDbEntity
8
0
100
AcDbLine
10
32.799999999999997
20
81.114000000000019
30
0
11
32.799999999999997
21
82.744000000000014
31
0
0
LINE
5
149
100
AcDbEntity
8
0
100
AcDbLine
10
30
20
81.114000000000019
30
0
11
32.799999999999997
21
81.114000000000019
31
0
0
LINE
5
150
100
AcDbEntity
8
0
100
AcDbLine
10
35.549999999999997
20
81.114000000000019
30
0
11
36.999999999999993
21
81.114000000000019
31
0
0
LINE
5
151
100
AcDbEntity
8
0
100
AcDbLine
10
36.999999999999993
20
81.114000000000019
30
0
11
36.999999999999993
21
79.614000000000004
31
0
0
LINE
5
152
100
AcDbEntity
8
0
100
AcDbLine
10
84.450000000000003
20
81.114000000000019
30
0
11
83
21
81.114000000000019
31
0
0
LINE
5
153
100
AcDbEntity
8
0
100
AcDbLine
10
90
20
78.114000000000004
30
0
11
87.200000000000003
21
78.114000000000004
31
0
0
LINE
5
154
100
AcDbEntity
8
0
100
AcDbLine
10
87.200000000000003
20
82.744000000000014
30
0
11
84.450000000000003
21
82.744000000000014
31
0
0
LINE
5
155
100
AcDbEntity
8
0
100
AcDbLine
10
84.450000000000003
20
78.114000000000004
30
0
11
83
21
78.114000000000004
31
0
0
LINE
5
156
100
AcDbEntity
8
0
100
AcDbLine
10
87.200000000000003
20
78.114000000000004
30
0
11
87.200000000000003
21
76.484000000000009
31
0
0
LINE
5
157
100
AcDbEntity
8
0
100
AcDbLine
10
87.200000000000003
20
81.114000000000019
30
0
11
87.200000000000003
21
82.744000000000014
31
0
0
LINE
5
158
100
AcDbEntity
8
0
100
AcDbLine
10
83
20
81.114000000000019
30
0
11
83
21
79.614000000000004
31
0
0
LINE
5
159
100
AcDbEntity
8
0
100
AcDbLine
10
87.200000000000003
20
76.484000000000009
30
0
11
84.450000000000003
21
76.484000000000009
31
0
0
LINE
5
160
100
AcDbEntity
8
0
100
AcDbLine
10
84.450000000000003
20
82.744000000000014
30
0
11
84.450000000000003
21
81.114000000000019
31
0
0
LINE
5
161
100
AcDbEntity
8
0
100
AcDbLine
10
83
20
78.114000000000004
30
0
11
83
21
79.614000000000004
31
0
0
LINE
5
162
100
AcDbEntity
8
0
100
AcDbLine
10
90
20
81.114000000000019
30
0
11
87.200000000000003
21
81.114000000000019
31
0
0
LINE
5
163
100
AcDbEntity
8
0
100
AcDbLine
10
84.450000000000003
20
76.484000000000009
30
0
11
84.450000000000003
21
78.114000000000004
31
0
0
LINE
5
164
100
AcDbEntity
8
0
100
AcDbLine
10
90
20
52.114000000000011
30
0
11
90
21
78.114000000000004
31
0
0
LINE
5
165
100
AcDbEntity
8
0
100
AcDbLine
10
90
20
81.114000000000019
30
0
11
90
21
107.114
31
0
0
LINE
5
166
100
AcDbEntity
8
0
100
AcDbLine
10
0
20
200
30
0
11
-60
21
200
31
0
0
LINE
5
167
100
AcDbEntity
8
0
100
AcDbLine
10
-60
20
284.95000000000005
30
0
11
0
21
284.95000000000005
31
0
0
LINE
5
168
100
AcDbEntity
8
0
100
AcDbLine
10
0
20
284.95000000000005
30
0
11
3.9364066994353209e-14
21
276.43200000000007
31
0
0
LINE
5
169
100
AcDbEntity
8
0
100
AcDbLine
10
3.9364066994353209e-14
20
276.43200000000007
30
0
11
3.1999999999999611
21
276.43200000000007
31
0
0
LINE
5
170
100
AcDbEntity
8
0
100
AcDbLine
10
3.1999999999999611
20
276.43200000000007
30
0
11
3.1999999999999647
21
251.43200000000007
31
0
0
LINE
5
171
100
AcDbEntity
8
0
100
AcDbLine
10
3.1999999999999647
20
251.43200000000007
30
0
11
0
21
251.43200000000007
31
0
0
LINE
5
172
100
AcDbEntity
8
0
100
AcDbLine
10
0
20
208.51799999999997
30
0
11
3.2000000000000028
21
208.51799999999997
31
0
0
LINE
5
173
100
AcDbEntity
8
0
100
AcDbLine
10
3.2000000000000028
20
208.51799999999997
30
0
11
3.2000000000000028
21
233.51799999999997
31
0
0
LINE
5
174
100
AcDbEntity
8
0
100
AcDbLine
10
3.2000000000000028
20
233.51799999999997
30
0
11
0
21
233.51799999999997
31
0
0
LINE
5
175
100
AcDbEntity
8
0
100
AcDbLine
10
-63.200000000000003
20
208.51799999999997
30
0
11
-63.200000000000003
21
233.51799999999997
31
0
0
LINE
5
176
100
AcDbEntity
8
0
100
AcDbLine
10
-63.200000000000003
20
276.43200000000007
30
0
11
-63.200000000000003
21
251.43200000000007
31
0
0
LINE
5
177
100
AcDbEntity
8
0
100
AcDbLine
10
-60
20
276.43200000000007
30
0
11
-63.200000000000003
21
276.43200000000007
31
0
0
LINE
5
178
100
AcDbEntity
8
0
100
AcDbLine
10
-63.200000000000003
20
251.43200000000007
30
0
11
-60
21
251.43200000000007
31
0
0
LINE
5
179
100
AcDbEntity
8
0
100
AcDbLine
10
-63.200000000000003
20
233.51799999999997
30
0
11
-60
21
233.51799999999997
31
0
0
LINE
5
180
100
AcDbEntity
8
0
100
AcDbLine
10
-60
20
208.51799999999997
30
0
11
-63.200000000000003
21
208.51799999999997
31
0
0
LINE
5
181
100
AcDbEntity
8
0
100
AcDbLine
10
0
20
284.95000000000005
30
0
11
3.9364066994353209e-14
21
276.43200000000007
31
0
0
LINE
5
182
100
AcDbEntity
8
0
100
AcDbLine
10
-60
20
276.43200000000007
30
0
11
-60
21
284.95000000000005
31
0
0
LINE
5
183
100
AcDbEntity
8
0
100
AcDbLine
10
-60
20
200
30
0
11
-60
21
208.51799999999997
31
0
0
LINE
5
184
100
AcDbEntity
8
0
100
AcDbLine
10
0
20
208.51799999999997
30
0
11
0
21
200
31
0
0
LINE
5
185
100
AcDbEntity
8
0
100
AcDbLine
10
-60
20
240.97499999999999
30
0
11
-57.200000000000003
21
240.97499999999999
31
0
0
LINE
5
186
100
AcDbEntity
8
0
100
AcDbLine
10
-57.200000000000003
20
240.97499999999999
30
0
11
-57.200000000000003
21
239.345
31
0
0
LINE
5
187
100
AcDbEntity
8
0
100
AcDbLine
10
-57.200000000000003
20
239.345
30
0
11
-54.450000000000017
21
239.345
31
0
0
LINE
5
188
100
AcDbEntity
8
0
100
AcDbLine
10
-54.450000000000017
20
239.345
30
0
11
-54.450000000000017
21
240.97499999999999
31
0
0
LINE
5
189
100
AcDbEntity
8
0
100
AcDbLine
10
-54.450000000000017
20
240.97499999999999
30
0
11
-53.000000000000028
21
240.97499999999999
31
0
0
LINE
5
190
100
AcDbEntity
8
0
100
AcDbLine
10
-53.000000000000028
20
243.97500000000002
30
0
11
-53.000000000000028
21
242.47499999999999
31
0
0
LINE
5
191
100
AcDbEntity
8
0
100
AcDbLine
10
-53.000000000000028
20
240.97499999999999
30
0
11
-53.000000000000028
21
242.47499999999999
31
0
0
LINE
5
192
100
AcDbEntity
8
0
100
AcDbLine
10
-54.450000000000017
20
243.97500000000002
30
0
11
-53.000000000000028
21
243.97500000000002
31
0
0
LINE
5
193
100
AcDbEntity
8
0
100
AcDbLine
10
-54.450000000000017
20
245.60499999999996
30
0
11
-54.450000000000017
21
243.97500000000002
31
0
0
LINE
5
194
100
AcDbEntity
8
0
100
AcDbLine
10
-57.200000000000017
20
245.60499999999996
30
0
11
-54.450000000000017
21
245.60499999999996
31
0
0
LINE
5
195
100
AcDbEntity
8
0
100
AcDbLine
10
-57.200000000000017
20
243.97500000000002
30
0
11
-57.200000000000017
21
245.60499999999996
31
0
0
LINE
5
196
100
AcDbEntity
8
0
100
AcDbLine
10
-60
20
243.97500000000002
30
0
11
-57.200000000000017
21
243.97500000000002
31
0
0
LINE
5
197
100
AcDbEntity
8
0
100
AcDbLine
10
-60
20
233.51799999999997
30
0
11
-60
21
240.97499999999999
31
0
0
LINE
5
198
100
AcDbEntity
8
0
100
AcDbLine
10
-60
20
243.97500000000002
30
0
11
-60
21
251.43200000000007
31
0
0
LINE
5
199
100
AcDbEntity
8
0
100
AcDbLine
10
0
20
240.97499999999999
30
0
11
-2.7999999999999936
21
240.97499999999999
31
0
0
LINE
5
200
100
AcDbEntity
8
0
100
AcDbLine
10
-2.7999999999999936
20
240.97499999999999
30
0
11
-2.7999999999999936
21
239.345
31
0
0
LINE
5
201
100
AcDbEntity
8
0
100
AcDbLine
10
-2.7999999999999936
20
239.345
30
0
11
-5.5499999999999794
21
239.345
31
0
0
LINE
5
202
100
AcDbEntity
8
0
100
AcDbLine
10
-5.5499999999999794
20
239.345
30
0
11
-5.5499999999999794
21
240.97499999999999
31
0
0
LINE
5
203
100
AcDbEntity
8
0
100
AcDbLine
10
-5.5499999999999794
20
240.97499999999999
30
0
11
-6.9999999999999751
21
240.97499999999999
31
0
0
LINE
5
204
100
AcDbEntity
8
0
100
AcDbLine
10
-6.9999999999999751
20
240.97499999999999
30
0
11
-6.9999999999999751
21
242.47499999999999
31
0
0
LINE
5
205
100
AcDbEntity
8
0
100
AcDbLine
10
-6.9999999999999751
20
243.97500000000002
30
0
11
-6.9999999999999751
21
242.47499999999999
31
0
0
LINE
5
206
100
AcDbEntity
8
0
100
AcDbLine
10
-5.5499999999999794
20
243.97500000000002
30
0
11
-6.9999999999999751
21
243.97500000000002
31
0
0
LINE
5
207
100
AcDbEntity
8
0
100
AcDbLine
10
-5.5499999999999794
20
245.60499999999996
30
0
11
-5.5499999999999794
21
243.97500000000002
31
0
0
LINE
5
208
100
AcDbEntity
8
0
100
AcDbLine
10
-2.7999999999999847
20
245.60499999999996
30
0
11
-5.5499999999999794
21
245.60499999999996
31
0
0
LINE
5
209
100
AcDbEntity
8
0
100
AcDbLine
10
-2.7999999999999847
20
243.97500000000002
30
0
11
-2.7999999999999847
21
245.60499999999996
31
0
0
LINE
5
210
100
AcDbEntity
8
0
100
AcDbLine
10
0
20
243.97500000000002
30
0
11
-2.7999999999999847
21
243.97500000000002
31
0
0
LINE
5
211
100
AcDbEntity
8
0
100
AcDbLine
10
0
20
251.43200000000007
30
0
11
0
21
243.97500000000002
31
0
0
LINE
5
212
100
AcDbEntity
8
0
100
AcDbLine
10
0
20
240.97499999999999
30
0
11
0
21
233.51799999999997
31
0
0
LINE
5
213
100
AcDbEntity
8
0
100
AcDbLine
10
183.19999999999999
20
132.114
30
0
11
183.19999999999999
21
107.114
31
0
0
LINE
5
214
100
AcDbEntity
8
0
100
AcDbLine
10
180
20
159.22800000000001
30
0
11
120
21
159.22800000000001
31
0
0
LINE
5
215
100
AcDbEntity
8
0
100
AcDbLine
10
116.8
20
107.114
30
0
11
120
21
107.114
31
0
0
LINE
5
216
100
AcDbEntity
8
0
100
AcDbLine
10
177.19999999999999
20
76.484000000000009
30
0
11
174.44999999999999
21
76.484000000000009
31
0
0
LINE
5
217
100
AcDbEntity
8
0
100
AcDbLine
10
183.19999999999999
20
107.114
30
0
11
180
21
107.114
31
0
0
LINE
5
218
100
AcDbEntity
8
0
100
AcDbLine
10
180
20
132.114
30
0
11
180
21
159.22800000000001
31
0
0
LINE
5
219
100
AcDbEntity
8
0
100
AcDbLine
10
120
20
132.114
30
0
11
116.8
21
132.114
31
0
0
LINE
5
220
100
AcDbEntity
8
0
100
AcDbLine
10
180
20
78.114000000000004
30
0
11
177.19999999999999
21
78.114000000000004
31
0
0
LINE
5
221
100
AcDbEntity
8
0
100
AcDbLine
10
180
20
52.114000000000011
30
0
11
180
21
78.114000000000004
31
0
0
LINE
5
222
100
AcDbEntity
8
0
100
AcDbLine
10
120
20
159.22800000000001
30
0
11
120
21
132.114
31
0
0
LINE
5
223
100
AcDbEntity
8
0
100
AcDbLine
10
116.8
20
132.114
30
0
11
116.8
21
107.114
31
0
0
LINE
5
224
100
AcDbEntity
8
0
100
AcDbLine
10
180
20
132.114
30
0
11
183.19999999999999
21
132.114
31
0
0
LINE
5
225
100
AcDbEntity
8
0
100
AcDbLine
10
177.19999999999999
20
78.114000000000004
30
0
11
177.19999999999999
21
76.484000000000009
31
0
0
LINE
5
226
100
AcDbEntity
8
0
100
AcDbLine
10
180
20
81.114000000000019
30
0
11
180
21
107.114
31
0
0
LINE
5
227
100
AcDbEntity
8
0
100
AcDbLine
10
174.44999999999999
20
78.114000000000004
30
0
11
173
21
78.114000000000004
31
0
0
LINE
5
228
100
AcDbEntity
8
0
100
AcDbLine
10
173
20
78.114000000000004
30
0
11
173
21
79.614000000000004
31
0
0
LINE
5
229
100
AcDbEntity
8
0
100
AcDbLine
10
174.44999999999999
20
76.484000000000009
30
0
11
174.44999999999999
21
78.114000000000004
31
0
0
LINE
5
230
100
AcDbEntity
8
0
100
AcDbLine
10
173
20
81.114000000000019
30
0
11
173
21
79.614000000000004
31
0
0
LINE
5
231
100
AcDbEntity
8
0
100
AcDbLine
10
177.19999999999999
20
81.114000000000019
30
0
11
177.19999999999999
21
82.744000000000014
31
0
0
LINE
5
232
100
AcDbEntity
8
0
100
AcDbLine
10
183.19999999999999
20
52.114000000000011
30
0
11
180
21
52.114000000000011
31
0
0
LINE
5
233
100
AcDbEntity
8
0
100
AcDbLine
10
180
20
0
30
0
11
180
21
27.114000000000011
31
0
0
LINE
5
234
100
AcDbEntity
8
0
100
AcDbLine
10
180
20
27.114000000000011
30
0
11
183.19999999999999
21
27.114000000000011
31
0
0
LINE
5
235
100
AcDbEntity
8
0
100
AcDbLine
10
120
20
0
30
0
11
180
21
0
31
0
0
LINE
5
236
100
AcDbEntity
8
0
100
AcDbLine
10
120
20
27.114000000000011
30
0
11
116.8
21
27.114000000000011
31
0
0
LINE
5
237
100
AcDbEntity
8
0
100
AcDbLine
10
116.8
20
52.114000000000011
30
0
11
120
21
52.114000000000011
31
0
0
LINE
5
238
100
AcDbEntity
8
0
100
AcDbLine
10
116.8
20
27.114000000000011
30
0
11
116.8
21
52.114000000000011
31
0
0
LINE
5
239
100
AcDbEntity
8
0
100
AcDbLine
10
183.19999999999999
20
27.114000000000011
30
0
11
183.19999999999999
21
52.114000000000011
31
0
0
LINE
5
240
100
AcDbEntity
8
0
100
AcDbLine
10
177.19999999999999
20
82.744000000000014
30
0
11
174.44999999999999
21
82.744000000000014
31
0
0
LINE
5
241
100
AcDbEntity
8
0
100
AcDbLine
10
120
20
27.114000000000011
30
0
11
120
21
0
31
0
0
LINE
5
242
100
AcDbEntity
8
0
100
AcDbLine
10
180
20
81.114000000000019
30
0
11
177.19999999999999
21
81.114000000000019
31
0
0
LINE
5
243
100
AcDbEntity
8
0
100
AcDbLine
10
174.44999999999999
20
82.744000000000014
30
0
11
174.44999999999999
21
81.114000000000019
31
0
0
LINE
5
244
100
AcDbEntity
8
0
100
AcDbLine
10
174.44999999999999
20
81.114000000000019
30
0
11
173
21
81.114000000000019
31
0
0
LINE
5
245
100
AcDbEntity
8
0
100
AcDbLine
10
3.2000000000000028
20
208.51799999999997
30
0
11
3.2000000000000028
21
233.51799999999997
31
0
0
LINE
5
246
100
AcDbEntity
8
0
100
AcDbLine
10
-60
20
208.51799999999997
30
0
11
-63.200000000000003
21
208.51799999999997
31
0
0
LINE
5
247
100
AcDbEntity
8
0
100
AcDbLine
10
-63.200000000000003
20
233.51799999999997
30
0
11
-60
21
233.51799999999997
31
0
0
LINE
5
248
100
AcDbEntity
8
0
100
AcDbLine
10
-63.200000000000003
20
251.43200000000007
30
0
11
-60
21
251.43200000000007
31
0
0
LINE
5
249
100
AcDbEntity
8
0
100
AcDbLine
10
-60
20
276.43200000000007
30
0
11
-63.200000000000003
21
276.43200000000007
31
0
0
LINE
5
250
100
AcDbEntity
8
0
100
AcDbLine
10
0
20
251.43200000000007
30
0
11
0
21
243.97500000000002
31
0
0
LINE
5
251
100
AcDbEntity
8
0
100
AcDbLine
10
-5.5499999999999794
20
243.97500000000002
30
0
11
-6.9999999999999751
21
243.97500000000002
31
0
0
LINE
5
252
100
AcDbEntity
8
0
100
AcDbLine
10
-54.450000000000017
20
240.97499999999999
30
0
11
-53.000000000000028
21
240.97499999999999
31
0
0
LINE
5
253
100
AcDbEntity
8
0
100
AcDbLine
10
-60
20
240.97499999999999
30
0
11
-57.200000000000003
21
240.97499999999999
31
0
0
LINE
5
254
100
AcDbEntity
8
0
100
AcDbLine
10
-57.200000000000017
20
243.97500000000002
30
0
11
-57.200000000000017
21
245.60499999999996
31
0
0
LINE
5
255
100
AcDbEntity
8
0
100
AcDbLine
10
-57.200000000000003
20
239.345
30
0
11
-54.450000000000017
21
239.345
31
0
0
LINE
5
256
100
AcDbEntity
8
0
100
AcDbLine
10
-57.200000000000003
20
240.97499999999999
30
0
11
-57.200000000000003
21
239.345
31
0
0
LINE
5
257
100
AcDbEntity
8
0
100
AcDbLine
10
0
20
284.95000000000005
30
0
11
3.9364066994353209e-14
21
276.43200000000007
31
0
0
LINE
5
258
100
AcDbEntity
8
0
100
AcDbLine
10
-2.7999999999999847
20
243.97500000000002
30
0
11
-2.7999999999999847
21
245.60499999999996
31
0
0
LINE
5
259
100
AcDbEntity
8
0
100
AcDbLine
10
-53.000000000000028
20
240.97499999999999
30
0
11
-53.000000000000028
21
242.47499999999999
31
0
0
LINE
5
260
100
AcDbEntity
8
0
100
AcDbLine
10
-54.450000000000017
20
243.97500000000002
30
0
11
-53.000000000000028
21
243.97500000000002
31
0
0
LINE
5
261
100
AcDbEntity
8
0
100
AcDbLine
10
0
20
243.97500000000002
30
0
11
-2.7999999999999847
21
243.97500000000002
31
0
0
LINE
5
262
100
AcDbEntity
8
0
100
AcDbLine
10
3.9364066994353209e-14
20
276.43200000000007
30
0
11
3.1999999999999611
21
276.43200000000007
31
0
0
LINE
5
263
100
AcDbEntity
8
0
100
AcDbLine
10
-2.7999999999999847
20
245.60499999999996
30
0
11
-5.5499999999999794
21
245.60499999999996
31
0
0
LINE
5
264
100
AcDbEntity
8
0
100
AcDbLine
10
3.1999999999999647
20
251.43200000000007
30
0
11
0
21
251.43200000000007
31
0
0
LINE
5
265
100
AcDbEntity
8
0
100
AcDbLine
10
-57.200000000000017
20
245.60499999999996
30
0
11
-54.450000000000017
21
245.60499999999996
31
0
0
LINE
5
266
100
AcDbEntity
8
0
100
AcDbLine
10
-5.5499999999999794
20
239.345
30
0
11
-5.5499999999999794
21
240.97499999999999
31
0
0
LINE
5
267
100
AcDbEntity
8
0
100
AcDbLine
10
-60
20
243.97500000000002
30
0
11
-57.200000000000017
21
243.97500000000002
31
0
0
LINE
5
268
100
AcDbEntity
8
0
100
AcDbLine
10
-6.9999999999999751
20
240.97499999999999
30
0
11
-6.9999999999999751
21
242.47499999999999
31
0
0
LINE
5
269
100
AcDbEntity
8
0
100
AcDbLine
10
0
20
200
30
0
11
-60
21
200
31
0
0
LINE
5
270
100
AcDbEntity
8
0
100
AcDbLine
10
0
20
208.51799999999997
30
0
11
0
21
200
31
0
0
LINE
5
271
100
AcDbEntity
8
0
100
AcDbLine
10
3.1999999999999611
20
276.43200000000007
30
0
11
3.1999999999999647
21
251.43200000000007
31
0
0
LINE
5
272
100
AcDbEntity
8
0
100
AcDbLine
10
-60
20
276.43200000000007
30
0
11
-60
21
284.95000000000005
31
0
0
LINE
5
273
100
AcDbEntity
8
0
100
AcDbLine
10
-63.200000000000003
20
276.43200000000007
30
0
11
-63.200000000000003
21
251.43200000000007
31
0
0
LINE
5
274
100
AcDbEntity
8
0
100
AcDbLine
10
-60
20
233.51799999999997
30
0
11
-60
21
240.97499999999999
31
0
0
LINE
5
275
100
AcDbEntity
8
0
100
AcDbLine
10
0
20
208.51799999999997
30
0
11
3.2000000000000028
21
208.51799999999997
31
0
0
LINE
5
276
100
AcDbEntity
8
0
100
AcDbLine
10
-54.450000000000017
20
245.60499999999996
30
0
11
-54.450000000000017
21
243.97500000000002
31
0
0
LINE
5
277
100
AcDbEntity
8
0
100
AcDbLine
10
0
20
240.97499999999999
30
0
11
-2.7999999999999936
21
240.97499999999999
31
0
0
LINE
5
278
100
AcDbEntity
8
0
100
AcDbLine
10
0
20
240.97499999999999
30
0
11
0
21
233.51799999999997
31
0
0
LINE
5
279
100
AcDbEntity
8
0
100
AcDbLine
10
0
20
284.95000000000005
30
0
11
3.9364066994353209e-14
21
276.43200000000007
31
0
0
LINE
5
280
100
AcDbEntity
8
0
100
AcDbLine
10
-53.000000000000028
20
243.97500000000002
30
0
11
-53.000000000000028
21
242.47499999999999
31
0
0
LINE
5
281
100
AcDbEntity
8
0
100
AcDbLine
10
-60
20
243.97500000000002
30
0
11
-60
21
251.43200000000007
31
0
0
LINE
5
282
100
AcDbEntity
8
0
100
AcDbLine
10
3.2000000000000028
20
233.51799999999997
30
0
11
0
21
233.51799999999997
31
0
0
LINE
5
283
100
AcDbEntity
8
0
100
AcDbLine
10
-2.7999999999999936
20
239.345
30
0
11
-5.5499999999999794
21
239.345
31
0
0
LINE
5
284
100
AcDbEntity
8
0
100
AcDbLine
10
-54.450000000000017
20
239.345
30
0
11
-54.450000000000017
21
240.97499999999999
31
0
0
LINE
5
285
100
AcDbEntity
8
0
100
AcDbLine
10
-60
20
284.95000000000005
30
0
11
0
21
284.95000000000005
31
0
0
LINE
5
286
100
AcDbEntity
8
0
100
AcDbLine
10
-2.7999999999999936
20
240.97499999999999
30
0
11
-2.7999999999999936
21
239.345
31
0
0
LINE
5
287
100
AcDbEntity
8
0
100
AcDbLine
10
-60
20
200
30
0
11
-60
21
208.51799999999997
31
0
0
LINE
5
288
100
AcDbEntity
8
0
100
AcDbLine
10
-63.200000000000003
20
208.51799999999997
30
0
11
-63.200000000000003
21
233.51799999999997
31
0
0
LINE
5
289
100
AcDbEntity
8
0
100
AcDbLine
10
-5.5499999999999794
20
240.97499999999999
30
0
11
-6.9999999999999751
21
240.97499999999999
31
0
0
LINE
5
290
100
AcDbEntity
8
0
100
AcDbLine
10
-6.9999999999999751
20
243.97500000000002
30
0
11
-6.9999999999999751
21
242.47499999999999
31
0
0
LINE
5
291
100
AcDbEntity
8
0
100
AcDbLine
10
-5.5499999999999794
20
245.60499999999996
30
0
11
-5.5499999999999794
21
243.97500000000002
31
0
0
LWPOLYLINE
5
292
100
AcDbEntity
8
0
100
AcDbPolyline
90
4
70
1
43
0.0
10
-158.21801175095973
20
169.22771378633365
10
-133.21801175095973
20
169.22771378633365
10
-133.21801175095973
20
165.82771378633365
10
-158.21801175095973
20
165.82771378633365
0
LWPOLYLINE
5
293
100
AcDbEntity
8
0
100
AcDbPolyline
90
4
70
1
43
0.0
10
-219.87204700383896
20
33.71385689316682
10
-219.87204700383896
20
58.71385689316682
10
-216.47204700383895
20
58.71385689316682
10
-216.47204700383895
20
33.71385689316682
0
LWPOLYLINE
5
294
100
AcDbEntity
8
0
100
AcDbPolyline
90
4
70
1
43
0.0
10
-126.40000000000001
20
33.71385689316682
10
-126.40000000000001
20
58.71385689316682
10
-123
20
58.71385689316682
10
-123
20
33.71385689316682
0
LWPOLYLINE
5
295
100
AcDbEntity
8
0
100
AcDbPolyline
90
8
70
1
43
0.0
10
-222.87204700383896
20
5.0000000000000089
10
-222.87204700383887
20
167.42771378633364
42
-0.41421356237309503
10
-217.87204700383887
20
172.42771378633364
10
-124.99999999999999
20
172.42771378633364
42
-0.41421356237309398
10
-119.99999999999999
20
167.42771378633364
10
-120
20
5.0000000000000044
42
-0.41421356237309631
10
-124.99999999999999
20
0
10
-217.87204700383896
20
1.3322676295501878e-14
42
-0.41421356237309476
0
LWPOLYLINE
5
296
100
AcDbEntity
8
0
100
AcDbPolyline
90
4
70
1
43
0.0
10
-209.65403525287923
20
165.82771378633365
10
-184.65403525287923
20
165.82771378633365
10
-184.65403525287923
20
169.22771378633365
10
-209.65403525287923
20
169.22771378633365
0
LWPOLYLINE
5
297
100
AcDbEntity
8
0
100
AcDbPolyline
90
4
70
1
43
0.0
10
-158.21801175095973
20
6.6000000000000005
10
-158.21801175095973
20
3.200000000000002
10
-133.21801175095973
20
3.200000000000002
10
-133.21801175095973
20
6.6000000000000005
0
CIRCLE
5
298
100
AcDbEntity
8
0
100
AcDbCircle
10
-124.69999999999999
20
86.21385689316682
30
0
40
1.6999999999999993
210
0
220
0
230
1
0
LWPOLYLINE
5
299
100
AcDbEntity
8
0
100
AcDbPolyline
90
4
70
1
43
0.0
10
-184.65403525287923
20
6.6000000000000005
10
-184.65403525287923
20
3.200000000000002
10
-209.65403525287923
20
3.200000000000002
10
-209.65403525287923
20
6.6000000000000005
0
LWPOLYLINE
5
300
100
AcDbEntity
8
0
100
AcDbPolyline
90
4
70
1
43
0.0
10
-126.40000000000001
20
138.71386053650073
10
-126.40000000000001
20
113.71386053650073
10
-123
20
113.71386053650073
10
-123
20
138.71386053650073
0
CIRCLE
5
301
100
AcDbEntity
8
0
100
AcDbCircle
10
-171.43602350191946
20
167.72771378633365
30
0
40
1.6999999999999995
210
0
220
0
230
1
0
LWPOLYLINE
5
302
100
AcDbEntity
8
0
100
AcDbPolyline
90
4
70
1
43
0.0
10
-219.87204700383896
20
113.71386053650073
10
-216.47204700383895
20
113.71386053650073
10
-216.47204700383895
20
138.71386053650073
10
-219.87204700383896
20
138.71386053650073
0
CIRCLE
5
303
100
AcDbEntity
8
0
100
AcDbCircle
10
-171.43602350191946
20
4.6999999999999984
30
0
40
1.6999999999999995
210
0
220
0
230
1
0
LINE
5
304
100
AcDbEntity
8
0
100
AcDbLine
10
21.799999999999997
20
208.51799999999997
30
0
11
21.799999999999997
21
233.51799999999997
31
0
0
LINE
5
305
100
AcDbEntity
8
0
100
AcDbLine
10
79.450000000000017
20
239.345
30
0
11
79.450000000000017
21
240.97499999999999
31
0
0
LINE
5
306
100
AcDbEntity
8
0
100
AcDbLine
10
82.200000000000017
20
243.97500000000002
30
0
11
82.200000000000017
21
245.60499999999996
31
0
0
LINE
5
307
100
AcDbEntity
8
0
100
AcDbLine
10
30.549999999999979
20
240.97499999999999
30
0
11
31.999999999999975
21
240.97499999999999
31
0
0
LINE
5
308
100
AcDbEntity
8
0
100
AcDbLine
10
25
20
276.43200000000007
30
0
11
25
21
284.95000000000005
31
0
0
LINE
5
309
100
AcDbEntity
8
0
100
AcDbLine
10
84.999999999998778
20
276.43200000000007
30
0
11
88.199999999999989
21
276.43200000000007
31
0
0
LINE
5
310
100
AcDbEntity
8
0
100
AcDbLine
10
85
20
240.97499999999999
30
0
11
82.200000000000003
21
240.97499999999999
31
0
0
LINE
5
311
100
AcDbEntity
8
0
100
AcDbLine
10
21.799999999999997
20
276.43200000000007
30
0
11
21.799999999999997
21
251.43200000000007
31
0
0
LINE
5
312
100
AcDbEntity
8
0
100
AcDbLine
10
25
20
276.43200000000007
30
0
11
21.799999999999997
21
276.43200000000007
31
0
0
LINE
5
313
100
AcDbEntity
8
0
100
AcDbLine
10
82.200000000000017
20
245.60499999999996
30
0
11
79.450000000000017
21
245.60499999999996
31
0
0
LINE
5
314
100
AcDbEntity
8
0
100
AcDbLine
10
27.799999999999994
20
239.345
30
0
11
30.549999999999979
21
239.345
31
0
0
LINE
5
315
100
AcDbEntity
8
0
100
AcDbLine
10
30.549999999999979
20
243.97500000000002
30
0
11
31.999999999999975
21
243.97500000000002
31
0
0
LINE
5
316
100
AcDbEntity
8
0
100
AcDbLine
10
85
20
208.51799999999997
30
0
11
88.200000000000003
21
208.51799999999997
31
0
0
LINE
5
317
100
AcDbEntity
8
0
100
AcDbLine
10
82.200000000000003
20
240.97499999999999
30
0
11
82.200000000000003
21
239.345
31
0
0
LINE
5
318
100
AcDbEntity
8
0
100
AcDbLine
10
82.200000000000003
20
239.345
30
0
11
79.450000000000017
21
239.345
31
0
0
LINE
5
319
100
AcDbEntity
8
0
100
AcDbLine
10
25
20
284.95000000000005
30
0
11
85
21
284.95000000000005
31
0
0
LINE
5
320
100
AcDbEntity
8
0
100
AcDbLine
10
82.200000000000017
20
243.97500000000002
30
0
11
82.200000000000017
21
245.60499999999996
31
0
0
LINE
5
321
100
AcDbEntity
8
0
100
AcDbLine
10
27.799999999999983
20
243.97500000000002
30
0
11
27.799999999999983
21
245.60499999999996
31
0
0
LINE
5
322
100
AcDbEntity
8
0
100
AcDbLine
10
30.549999999999979
20
239.345
30
0
11
30.549999999999979
21
240.97499999999999
31
0
0
LINE
5
323
100
AcDbEntity
8
0
100
AcDbLine
10
31.999999999999975
20
243.97500000000002
30
0
11
31.999999999999975
21
242.47499999999999
31
0
0
LINE
5
324
100
AcDbEntity
8
0
100
AcDbLine
10
25
20
240.97499999999999
30
0
11
27.799999999999994
21
240.97499999999999
31
0
0
LINE
5
325
100
AcDbEntity
8
0
100
AcDbLine
10
85
20
251.43200000000007
30
0
11
85
21
243.97500000000002
31
0
0
LINE
5
326
100
AcDbEntity
8
0
100
AcDbLine
10
85
20
251.43200000000007
30
0
11
85
21
243.97500000000002
31
0
0
LINE
5
327
100
AcDbEntity
8
0
100
AcDbLine
10
85
20
208.51799999999997
30
0
11
85
21
200
31
0
0
LINE
5
328
100
AcDbEntity
8
0
100
AcDbLine
10
21.799999999999997
20
251.43200000000007
30
0
11
25
21
251.43200000000007
31
0
0
LWPOLYLINE
5
329
100
AcDbEntity
8
0
100
AcDbPolyline
90
2
70
1
43
0.0
10
85
20
284.95000000000005
10
84.999999999998778
20
276.43200000000007
0
LINE
5
330
100
AcDbEntity
8
0
100
AcDbLine
10
25
20
243.97500000000002
30
0
11
25
21
251.43200000000007
31
0
0
LINE
5
331
100
AcDbEntity
8
0
100
AcDbLine
10
78.000000000000028
20
243.97500000000002
30
0
11
78.000000000000028
21
242.47499999999999
31
0
0
LINE
5
332
100
AcDbEntity
8
0
100
AcDbLine
10
30.549999999999979
20
243.97500000000002
30
0
11
31.999999999999975
21
243.97500000000002
31
0
0
LINE
5
333
100
AcDbEntity
8
0
100
AcDbLine
10
27.799999999999994
20
239.345
30
0
11
30.549999999999979
21
239.345
31
0
0
LINE
5
334
100
AcDbEntity
8
0
100
AcDbLine
10
25
20
233.51799999999997
30
0
11
25
21
240.97499999999999
31
0
0
LINE
5
335
100
AcDbEntity
8
0
100
AcDbLine
10
25
20
208.51799999999997
30
0
11
21.799999999999997
21
208.51799999999997
31
0
0
LINE
5
336
100
AcDbEntity
8
0
100
AcDbLine
10
25
20
243.97500000000002
30
0
11
27.799999999999983
21
243.97500000000002
31
0
0
LINE
5
337
100
AcDbEntity
8
0
100
AcDbLine
10
30.549999999999979
20
240.97499999999999
30
0
11
31.999999999999975
21
240.97499999999999
31
0
0
LINE
5
338
100
AcDbEntity
8
0
100
AcDbLine
10
78.000000000000028
20
240.97499999999999
30
0
11
78.000000000000028
21
242.47499999999999
31
0
0
LINE
5
339
100
AcDbEntity
8
0
100
AcDbLine
10
85
20
240.97499999999999
30
0
11
85
21
233.51799999999997
31
0
0
LINE
5
340
100
AcDbEntity
8
0
100
AcDbLine
10
30.549999999999979
20
239.345
30
0
11
30.549999999999979
21
240.97499999999999
31
0
0
LINE
5
341
100
AcDbEntity
8
0
100
AcDbLine
10
31.999999999999975
20
243.97500000000002
30
0
11
31.999999999999975
21
242.47499999999999
31
0
0
LINE
5
342
100
AcDbEntity
8
0
100
AcDbLine
10
25
20
208.51799999999997
30
0
11
21.799999999999997
21
208.51799999999997
31
0
0
LINE
5
343
100
AcDbEntity
8
0
100
AcDbLine
10
88.199999999999989
20
251.43200000000007
30
0
11
85
21
251.43200000000007
31
0
0
LINE
5
344
100
AcDbEntity
8
0
100
AcDbLine
10
88.200000000000003
20
208.51799999999997
30
0
11
88.200000000000003
21
233.51799999999997
31
0
0
LINE
5
345
100
AcDbEntity
8
0
100
AcDbLine
10
85
20
240.97499999999999
30
0
11
82.200000000000003
21
240.97499999999999
31
0
0
LINE
5
346
100
AcDbEntity
8
0
100
AcDbLine
10
79.450000000000017
20
240.97499999999999
30
0
11
78.000000000000028
21
240.97499999999999
31
0
0
LINE
5
347
100
AcDbEntity
8
0
100
AcDbLine
10
79.450000000000017
20
243.97500000000002
30
0
11
78.000000000000028
21
243.97500000000002
31
0
0
LINE
5
348
100
AcDbEntity
8
0
100
AcDbLine
10
25
20
233.51799999999997
30
0
11
25
21
240.97499999999999
31
0
0
LINE
5
349
100
AcDbEntity
8
0
100
AcDbLine
10
85
20
243.97500000000002
30
0
11
82.200000000000017
21
243.97500000000002
31
0
0
LINE
5
350
100
AcDbEntity
8
0
100
AcDbLine
10
27.799999999999994
20
240.97499999999999
30
0
11
27.799999999999994
21
239.345
31
0
0
LINE
5
351
100
AcDbEntity
8
0
100
AcDbLine
10
78.000000000000028
20
243.97500000000002
30
0
11
78.000000000000028
21
242.47499999999999
31
0
0
LINE
5
352
100
AcDbEntity
8
0
100
AcDbLine
10
82.200000000000003
20
239.345
30
0
11
79.450000000000017
21
239.345
31
0
0
LINE
5
353
100
AcDbEntity
8
0
100
AcDbLine
10
21.799999999999997
20
233.51799999999997
30
0
11
25
21
233.51799999999997
31
0
0
LINE
5
354
100
AcDbEntity
8
0
100
AcDbLine
10
85
20
208.51799999999997
30
0
11
85
21
200
31
0
0
LINE
5
355
100
AcDbEntity
8
0
100
AcDbLine
10
21.799999999999997
20
233.51799999999997
30
0
11
25
21
233.51799999999997
31
0
0
LINE
5
356
100
AcDbEntity
8
0
100
AcDbLine
10
21.799999999999997
20
276.43200000000007
30
0
11
21.799999999999997
21
251.43200000000007
31
0
0
LINE
5
357
100
AcDbEntity
8
0
100
AcDbLine
10
85
20
243.97500000000002
30
0
11
82.200000000000017
21
243.97500000000002
31
0
0
LINE
5
358
100
AcDbEntity
8
0
100
AcDbLine
10
25
20
243.97500000000002
30
0
11
25
21
251.43200000000007
31
0
0
LINE
5
359
100
AcDbEntity
8
0
100
AcDbLine
10
27.799999999999983
20
245.60499999999996
30
0
11
30.549999999999979
21
245.60499999999996
31
0
0
LINE
5
360
100
AcDbEntity
8
0
100
AcDbLine
10
85
20
200
30
0
11
25
21
200
31
0
0
LINE
5
361
100
AcDbEntity
8
0
100
AcDbLine
10
88.200000000000003
20
208.51799999999997
30
0
11
88.200000000000003
21
233.51799999999997
31
0
0
LWPOLYLINE
5
362
100
AcDbEntity
8
0
100
AcDbPolyline
90
2
70
1
43
0.0
10
85
20
284.95000000000005
10
84.999999999998778
20
276.43200000000007
0
LINE
5
363
100
AcDbEntity
8
0
100
AcDbLine
10
27.799999999999994
20
240.97499999999999
30
0
11
27.799999999999994
21
239.345
31
0
0
LINE
5
364
100
AcDbEntity
8
0
100
AcDbLine
10
88.200000000000003
20
233.51799999999997
30
0
11
85
21
233.51799999999997
31
0
0
LINE
5
365
100
AcDbEntity
8
0
100
AcDbLine
10
31.999999999999975
20
240.97499999999999
30
0
11
31.999999999999975
21
242.47499999999999
31
0
0
LINE
5
366
100
AcDbEntity
8
0
100
AcDbLine
10
88.199999999999989
20
251.43200000000007
30
0
11
85
21
251.43200000000007
31
0
0
LINE
5
367
100
AcDbEntity
8
0
100
AcDbLine
10
85
20
200
30
0
11
25
21
200
31
0
0
LINE
5
368
100
AcDbEntity
8
0
100
AcDbLine
10
88.200000000000003
20
233.51799999999997
30
0
11
85
21
233.51799999999997
31
0
0
LINE
5
369
100
AcDbEntity
8
0
100
AcDbLine
10
88.199999999999989
20
276.43200000000007
30
0
11
88.199999999999989
21
251.43200000000007
31
0
0
LINE
5
370
100
AcDbEntity
8
0
100
AcDbLine
10
88.199999999999989
20
276.43200000000007
30
0
11
88.199999999999989
21
251.43200000000007
31
0
0
LINE
5
371
100
AcDbEntity
8
0
100
AcDbLine
10
21.799999999999997
20
208.51799999999997
30
0
11
21.799999999999997
21
233.51799999999997
31
0
0
LINE
5
372
100
AcDbEntity
8
0
100
AcDbLine
10
27.799999999999983
20
243.97500000000002
30
0
11
27.799999999999983
21
245.60499999999996
31
0
0
LINE
5
373
100
AcDbEntity
8
0
100
AcDbLine
10
25
20
200
30
0
11
25
21
208.51799999999997
31
0
0
LINE
5
374
100
AcDbEntity
8
0
100
AcDbLine
10
25
20
200
30
0
11
25
21
208.51799999999997
31
0
0
LINE
5
375
100
AcDbEntity
8
0
100
AcDbLine
10
25
20
276.43200000000007
30
0
11
25
21
284.95000000000005
31
0
0
LINE
5
376
100
AcDbEntity
8
0
100
AcDbLine
10
25
20
284.95000000000005
30
0
11
85
21
284.95000000000005
31
0
0
LINE
5
377
100
AcDbEntity
8
0
100
AcDbLine
10
25
20
240.97499999999999
30
0
11
27.799999999999994
21
240.97499999999999
31
0
0
LINE
5
378
100
AcDbEntity
8
0
100
AcDbLine
10
82.200000000000017
20
245.60499999999996
30
0
11
79.450000000000017
21
245.60499999999996
31
0
0
LINE
5
379
100
AcDbEntity
8
0
100
AcDbLine
10
25
20
276.43200000000007
30
0
11
21.799999999999997
21
276.43200000000007
31
0
0
LINE
5
380
100
AcDbEntity
8
0
100
AcDbLine
10
85
20
240.97499999999999
30
0
11
85
21
233.51799999999997
31
0
0
LINE
5
381
100
AcDbEntity
8
0
100
AcDbLine
10
30.549999999999979
20
245.60499999999996
30
0
11
30.549999999999979
21
243.97500000000002
31
0
0
LINE
5
382
100
AcDbEntity
8
0
100
AcDbLine
10
79.450000000000017
20
243.97500000000002
30
0
11
78.000000000000028
21
243.97500000000002
31
0
0
LINE
5
383
100
AcDbEntity
8
0
100
AcDbLine
10
25
20
243.97500000000002
30
0
11
27.799999999999983
21
243.97500000000002
31
0
0
LINE
5
384
100
AcDbEntity
8
0
100
AcDbLine
10
79.450000000000017
20
245.60499999999996
30
0
11
79.450000000000017
21
243.97500000000002
31
0
0
LINE
5
385
100
AcDbEntity
8
0
100
AcDbLine
10
79.450000000000017
20
239.345
30
0
11
79.450000000000017
21
240.97499999999999
31
0
0
LINE
5
386
100
AcDbEntity
8
0
100
AcDbLine
10
82.200000000000003
20
240.97499999999999
30
0
11
82.200000000000003
21
239.345
31
0
0
LINE
5
387
100
AcDbEntity
8
0
100
AcDbLine
10
78.000000000000028
20
240.97499999999999
30
0
11
78.000000000000028
21
242.47499999999999
31
0
0
LINE
5
388
100
AcDbEntity
8
0
100
AcDbLine
10
79.450000000000017
20
245.60499999999996
30
0
11
79.450000000000017
21
243.97500000000002
31
0
0
LINE
5
389
100
AcDbEntity
8
0
100
AcDbLine
10
79.450000000000017
20
240.97499999999999
30
0
11
78.000000000000028
21
240.97499999999999
31
0
0
LINE
5
390
100
AcDbEntity
8
0
100
AcDbLine
10
27.799999999999983
20
245.60499999999996
30
0
11
30.549999999999979
21
245.60499999999996
31
0
0
LINE
5
391
100
AcDbEntity
8
0
100
AcDbLine
10
30.549999999999979
20
245.60499999999996
30
0
11
30.549999999999979
21
243.97500000000002
31
0
0
LINE
5
392
100
AcDbEntity
8
0
100
AcDbLine
10
84.999999999998778
20
276.43200000000007
30
0
11
88.199999999999989
21
276.43200000000007
31
0
0
LINE
5
393
100
AcDbEntity
8
0
100
AcDbLine
10
21.799999999999997
20
251.43200000000007
30
0
11
25
21
251.43200000000007
31
0
0
LINE
5
394
100
AcDbEntity
8
0
100
AcDbLine
10
85
20
208.51799999999997
30
0
11
88.200000000000003
21
208.51799999999997
31
0
0
LINE
5
395
100
AcDbEntity
8
0
100
AcDbLine
10
31.999999999999975
20
240.97499999999999
30
0
11
31.999999999999975
21
242.47499999999999
31
0
0
LINE
5
396
100
AcDbEntity
8
0
100
AcDbLine
10
120
20
57.81400000000005
30
0
11
135.99999955296514
21
57.81400000000005
31
0
0
LINE
5
397
100
AcDbEntity
8
0
100
AcDbLine
10
135.99999955296514
20
57.81400000000005
30
0
11
135.99999955296514
21
69.914000000000044
31
0
0
LINE
5
398
100
AcDbEntity
8
0
100
AcDbLine
10
135.99999955296514
20
69.914000000000044
30
0
11
120
21
69.914000000000044
31
0
0
LINE
5
399
100
AcDbEntity
8
0
100
AcDbLine
10
120
20
89.313999999999979
30
0
11
135.99999999999997
21
89.313999999999979
31
0
0
LINE
5
400
100
AcDbEntity
8
0
100
AcDbLine
10
135.99999999999997
20
89.313999999999979
30
0
11
135.99999999999997
21
98.313999999999993
31
0
0
LINE
5
401
100
AcDbEntity
8
0
100
AcDbLine
10
135.99999999999997
20
98.313999999999993
30
0
11
120
21
98.313999999999993
31
0
0
LINE
5
402
100
AcDbEntity
8
0
100
AcDbLine
10
30
20
107.114
30
0
11
30
21
81.114000000000019
31
0
0
LINE
5
403
100
AcDbEntity
8
0
100
AcDbLine
10
120
20
57.81400000000005
30
0
11
120
21
52.114000000000011
31
0
0
LINE
5
404
100
AcDbEntity
8
0
100
AcDbLine
10
120
20
89.313999999999979
30
0
11
120
21
69.914000000000044
31
0
0
LINE
5
405
100
AcDbEntity
8
0
100
AcDbLine
10
120
20
107.114
30
0
11
120
21
98.313999999999993
31
0
0
CIRCLE
5
406
100
AcDbEntity
8
0
100
AcDbCircle
10
-98.172047003838912
20
86.21385689316682
30
0
40
1.6999999999999993
210
0
220
0
230
1
0
ENDSEC
0
SECTION
2
OBJECTS
0
DICTIONARY
5
C
100
AcDbDictionary
3
ACAD_GROUP
350
D
3
ACAD_MLINESTYLE
350
17
0
DICTIONARY
5
D
100
AcDbDictionary
0
DICTIONARY
5
1A
330
C
100
AcDbDictionary
0
DICTIONARY
5
17
100
AcDbDictionary
0
ENDSEC
0
EOF
